# xmcd
#
# Track frame offsets:
#	150
#	12088
#	23503
#	37838
#	56940
#	66538
#	80948
#	96100
#	108523
#	123315
#	139840
#	156750
#	176820
#	187408
#	196515
#	207388
#	219733
#	234803
#	250748
#	264268
#	275503
#	287900
#	299593
#	310783
#	321980
#
# Disc length: 4442 seconds
#
# Revision: 1
# Processed by: cddbd v1.5.1PL0 Copyright (c) Steve Scherf et al.
# Submitted via: CDex 1.50Beta5
#
DISCID=7d115819
DTITLE=ソニー・ローリンズ - エッセンス・ジャズ
DYEAR=2001
DGENRE=Jazz
TTITLE0=ソニー・ローリンズ/セント・トーマス
TTITLE1=マイルス・デイビス/エアジン
TTITLE2=セロニアス・モンク/ベムシャ・スウィング
TTITLE3=レッド・ガーランド/Cジャム・ブルース
TTITLE4=アート・ペッパー/ユード・ビー・ソー・ナイス・トゥ・カム・ホーム・トゥ
TTITLE5=ブルー・ミッチェル/アイル・クローズ・マイ・アイズ
TTITLE6=ビル・エヴァンス/枯葉
TTITLE7=ビル・エヴァンス/ワルツ・フォー・デビイ
TTITLE8=エリック・ドルフィー/ファイアー・ワルツ
TTITLE9=ケニー・バレル&ジョン・コルトレーン/フレイト・トレイン
TTITLE10=ジョン・コルトレーン/コートにすみれを
TTITLE11=ジャッキー・マクリーン/センチメンタル・ジャーニー
TTITLE12=アート・テイタム&ベン・ウェブスター/風と共に去りぬ
TTITLE13=セロニアス・モンク/ラウンド・ミッドナイト
TTITLE14=ケニー・ドーハム/蓮の花
TTITLE15=ウエス・モンゴメリー/フル・ハウス
TTITLE16=ウイントン・ケリー/ケリー・ブルー
TTITLE17=ボビー・ティモンズ/モーニン
TTITLE18=キャノンボール・アダレイ/ハイ・フライ
TTITLE19=M.J.Q./朝日のようにさわやかに
TTITLE20=レイ・ブライアント/ゴールデン・イアリングス
TTITLE21=マイルス・デイビス/バグス・グルーヴ
TTITLE22=マイルス・デイビス/マイ・ファニー・ヴァレンタイン
TTITLE23=M.J.Q./ジャンゴ
TTITLE24=ジョン・コルトレーン/アイ・ウォント・トゥ・トーク・アバウト・ユー
EXTD=
EXTT0=
EXTT1=
EXTT2=
EXTT3=
EXTT4=
EXTT5=
EXTT6=
EXTT7=
EXTT8=
EXTT9=
EXTT10=
EXTT11=
EXTT12=
EXTT13=
EXTT14=
EXTT15=
EXTT16=
EXTT17=
EXTT18=
EXTT19=
EXTT20=
EXTT21=
EXTT22=
EXTT23=
EXTT24=
PLAYORDER=
